<svg id="YouTube" xmlns="http://www.w3.org/2000/svg" xmlns:xlink="http://www.w3.org/1999/xlink" width="428" height="926" viewBox="0 0 428 926">
  <defs>
    <clipPath id="clip-path">
      <rect width="388" height="415" fill="none"/>
    </clipPath>
  </defs>
  <rect id="background" width="428" height="926" rx="32" fill="#212121"/>
  <g id="YouTube-2" data-name="YouTube">
    <g id="Rectangle_119" data-name="Rectangle 119" opacity="0">
      <rect id="Rectangle_119-2" data-name="Rectangle 119" width="428" height="64" transform="translate(0 862)" fill="#212121"/>
      <path id="Rectangle_119_-_Outline" data-name="Rectangle 119 - Outline" d="M1,1V63H427V1H1M0,0H428V64H0Z" transform="translate(0 862)" fill="rgba(255,255,255,0.16)"/>
    </g>
    <g id="Group_8155" data-name="Group 8155" transform="translate(-7)">
      <g id="subscriptions_black_24dp_1_" data-name="subscriptions_black_24dp (1)" transform="translate(294 874)">
        <path id="Path_7721" data-name="Path 7721" d="M0,0H24V24H0Z" fill="none"/>
        <path id="Path_7722" data-name="Path 7722" d="M20,8H4V6H20ZM18,2H6V4H18Zm4,8V22H2V10Zm-6,6-6-3.27v6.53Z" fill="#fff"/>
      </g>
      <text id="Subscriptions" transform="translate(307 912)" fill="#fff" font-size="10" font-family="Gilroy-Medium, Gilroy ☞" font-weight="500"><tspan x="-30.72" y="0">Subscriptions</tspan></text>
    </g>
    <g id="add-circle" transform="translate(192 872)">
      <g id="Group_8142" data-name="Group 8142" transform="translate(2 2)">
        <path id="Path_7731" data-name="Path 7731" d="M22.5,43.75a20.991,20.991,0,0,1-8.253-1.677,21.45,21.45,0,0,1-11.32-11.32,21.143,21.143,0,0,1,0-16.506,21.45,21.45,0,0,1,11.32-11.32,21.143,21.143,0,0,1,16.506,0,21.45,21.45,0,0,1,11.32,11.32,21.143,21.143,0,0,1,0,16.506,21.45,21.45,0,0,1-11.32,11.32A20.991,20.991,0,0,1,22.5,43.75Zm0-41A19.75,19.75,0,1,0,42.25,22.5,19.772,19.772,0,0,0,22.5,2.75Z" transform="translate(-2 -2)" fill="#fff"/>
        <path id="Path_7732" data-name="Path 7732" d="M24.4,12.75H8a.75.75,0,0,1,0-1.5H24.4a.75.75,0,0,1,0,1.5Z" transform="translate(4.3 8.5)" fill="#fff"/>
        <path id="Path_7733" data-name="Path 7733" d="M12,25.15a.75.75,0,0,1-.75-.75V8a.75.75,0,0,1,1.5,0V24.4A.75.75,0,0,1,12,25.15Z" transform="translate(8.5 4.3)" fill="#fff"/>
      </g>
    </g>
    <g id="arrow-down" transform="translate(201.92 831.05)">
      <g id="Group_8147" data-name="Group 8147">
        <path id="Path_7734" data-name="Path 7734" d="M12,16.8a2.721,2.721,0,0,1-1.93-.8L3.55,9.48A.75.75,0,1,1,4.61,8.42l6.52,6.52a1.231,1.231,0,0,0,1.739,0l6.52-6.52A.75.75,0,0,1,20.45,9.48L13.93,16A2.721,2.721,0,0,1,12,16.8Z" fill="#ccc"/>
      </g>
    </g>
    <g id="Group_8196" data-name="Group 8196" transform="translate(0 20)">
      <rect id="Rectangle_120" data-name="Rectangle 120" width="428" height="64" fill="#212121" opacity="0"/>
      <g id="Group_8195" data-name="Group 8195">
        <g id="logo-youtube" transform="translate(20 16)">
          <path id="Path_248" data-name="Path 248" d="M46.815,5.446a5.784,5.784,0,0,0-4.072-4.072C39.172.4,24.8.4,24.8.4S10.429.43,6.858,1.4A5.784,5.784,0,0,0,2.786,5.476c-1.08,6.345-1.5,16.012.03,22.1a5.784,5.784,0,0,0,4.072,4.072c3.571.974,17.942.974,17.942.974s14.371,0,17.942-.974a5.784,5.784,0,0,0,4.072-4.072C47.983,21.225,48.335,11.564,46.815,5.446Z" transform="translate(-1.817 -0.4)" fill="red"/>
          <path id="Path_249" data-name="Path 249" d="M64.2,45.411l11.922-6.905L64.2,31.6Z" transform="translate(-45.791 -22.393)" fill="#fff"/>
          <g id="Group_625" data-name="Group 625" transform="translate(50.517 1.269)">
            <g id="Group_624" data-name="Group 624">
              <path id="Path_250" data-name="Path 250" d="M189.2,35.2a5.006,5.006,0,0,1-1.948-2.862,18.817,18.817,0,0,1-.561-5.164V24.254a16.837,16.837,0,0,1,.649-5.223,5.091,5.091,0,0,1,2.066-2.862,6.785,6.785,0,0,1,3.659-.915,6.163,6.163,0,0,1,3.571.915,5.336,5.336,0,0,1,1.977,2.862,17.688,17.688,0,0,1,.62,5.194v2.922a17.471,17.471,0,0,1-.62,5.164,5.185,5.185,0,0,1-1.977,2.862,6.751,6.751,0,0,1-3.689.915A6.59,6.59,0,0,1,189.2,35.2Zm5.105-3.158a9.424,9.424,0,0,0,.384-3.217V22.542a9.146,9.146,0,0,0-.384-3.158,1.361,1.361,0,0,0-1.328-1,1.329,1.329,0,0,0-1.3,1,9.259,9.259,0,0,0-.384,3.158v6.286a10.438,10.438,0,0,0,.354,3.217,1.321,1.321,0,0,0,1.328.974A1.369,1.369,0,0,0,194.306,32.044Zm64.686-4.81v1.033l.118,2.922a2.936,2.936,0,0,0,.472,1.416,1.62,1.62,0,0,0,2.508-.354,6.8,6.8,0,0,0,.413-2.626l3.925.236a4.792,4.792,0,0,1,.03.708,5.266,5.266,0,0,1-1.535,4.161,6.246,6.246,0,0,1-4.308,1.387c-2.243,0-3.807-.708-4.692-2.1s-1.357-3.571-1.357-6.492V23.958c.1-5.017.983-8.691,6.168-8.706a6.314,6.314,0,0,1,3.571.856,4.634,4.634,0,0,1,1.771,2.656,18.632,18.632,0,0,1,.5,4.987V27.2h-7.584Zm.59-8.5a2.808,2.808,0,0,0-.472,1.387c-.089.649-.118,2.951-.118,2.951v1.446H262.3V23.073c0,1.446-.03-2.272-.118-2.951a2.717,2.717,0,0,0-.472-1.416,1.355,1.355,0,0,0-1.062-.413A1.377,1.377,0,0,0,259.583,18.735ZM178.164,26.85,173,8.2h4.515s2.11,9.355,2.833,13.752h.118c.82-4.669,2.892-13.752,2.892-13.752h4.515L182.65,26.821v8.942h-4.456V26.85Z" transform="translate(-173 -7.167)" fill="#fff"/>
              <path id="A" d="M282.247,33.4V53.555h-3.541l-.384-2.479h-.089a4.673,4.673,0,0,1-4.338,2.8c-3.473-.009-3.86-2.951-3.9-5.43V33.4h4.545V48.185a4.388,4.388,0,0,0,.3,1.918c.419.82,1.505.611,2.1.207a2.361,2.361,0,0,0,.8-.915V33.4Z" transform="translate(-241.375 -24.931)" fill="#fff"/>
              <path id="Path_251" data-name="Path 251" d="M321.157,9.392h-4.515V33.325h-4.427V9.392H307.7V5.733h13.427V9.392ZM347.1,16.386a5.2,5.2,0,0,0-1.328-2.774,3.615,3.615,0,0,0-2.538-.856,4.161,4.161,0,0,0-2.331.708,4.858,4.858,0,0,0-1.682,1.859h-.03V4.7H334.82V33.3h3.748l.472-1.918h.089A4.131,4.131,0,0,0,340.692,33a4.8,4.8,0,0,0,2.331.59,3.6,3.6,0,0,0,3.394-2.125,15.477,15.477,0,0,0,1.092-6.61V21.668A27.034,27.034,0,0,0,347.1,16.386Zm-4.161,8.233a25.88,25.88,0,0,1-.177,3.453,3.607,3.607,0,0,1-.62,1.771,1.427,1.427,0,0,1-1.151.531,1.992,1.992,0,0,1-1.8-1.062V17.862a2.736,2.736,0,0,1,.8-1.357,1.447,1.447,0,0,1,2.272,0,4.224,4.224,0,0,1,.531,1.83c.089.856.147,2.066.147,3.659Z" transform="translate(-267.95 -4.7)" fill="#fff"/>
            </g>
            <path id="Path_252" data-name="Path 252" d="M282.247,33.4V53.555h-3.541l-.384-2.479h-.089a4.673,4.673,0,0,1-4.338,2.8c-3.473-.009-3.86-2.951-3.9-5.43V33.4h4.545V48.185a4.388,4.388,0,0,0,.3,1.918c.419.82,1.505.611,2.1.207a2.361,2.361,0,0,0,.8-.915V33.4Z" transform="translate(-218.092 -24.931)" fill="#fff"/>
          </g>
        </g>
        <g id="mirroring-screen" transform="translate(296.02 20)">
          <g id="Group_8148" data-name="Group 8148">
            <path id="Path_7735" data-name="Path 7735" d="M17,21.75H16a.75.75,0,0,1,0-1.5h1A3.983,3.983,0,0,0,21.25,16V8A3.983,3.983,0,0,0,17,3.75H7A3.983,3.983,0,0,0,2.75,8V9a.75.75,0,0,1-1.5,0V8A5.719,5.719,0,0,1,2.845,3.845,5.719,5.719,0,0,1,7,2.25H17a5.719,5.719,0,0,1,4.155,1.595A5.719,5.719,0,0,1,22.75,8v8A5.47,5.47,0,0,1,17,21.75Z" fill="#ccc"/>
            <path id="Path_7736" data-name="Path 7736" d="M12.3,21.07a.75.75,0,0,1-.743-.653,9,9,0,0,0-7.961-7.963.75.75,0,1,1,.19-1.488,10.63,10.63,0,0,1,6.248,3.008,10.684,10.684,0,0,1,3.011,6.25.75.75,0,0,1-.647.84A.758.758,0,0,1,12.3,21.07Z" fill="#ccc"/>
            <path id="Path_7737" data-name="Path 7737" d="M8.939,22.14a.75.75,0,0,1-.743-.654,6.4,6.4,0,0,0-5.671-5.673.75.75,0,0,1,.189-1.488,7.988,7.988,0,0,1,4.7,2.264,8.042,8.042,0,0,1,2.267,4.7.75.75,0,0,1-.647.84A.758.758,0,0,1,8.939,22.14Z" fill="#ccc"/>
            <path id="Path_7738" data-name="Path 7738" d="M5.139,22.77a.75.75,0,0,1-.743-.654A2.843,2.843,0,0,0,1.883,19.6a.75.75,0,1,1,.194-1.487,4.392,4.392,0,0,1,2.564,1.238,4.382,4.382,0,0,1,1.243,2.57.75.75,0,0,1-.648.84A.758.758,0,0,1,5.139,22.77Z" fill="#ccc"/>
          </g>
        </g>
        <g id="search-normal-1" transform="translate(347 21)">
          <g id="Group_8149" data-name="Group 8149">
            <path id="Path_7739" data-name="Path 7739" d="M11.5,21.75A10.25,10.25,0,1,1,21.75,11.5,10.262,10.262,0,0,1,11.5,21.75Zm0-19a8.75,8.75,0,1,0,8.75,8.75A8.76,8.76,0,0,0,11.5,2.75Z" fill="#ccc"/>
            <path id="Path_7740" data-name="Path 7740" d="M22,22.75a.748.748,0,0,1-.53-.22l-2-2A.75.75,0,0,1,20.53,19.47l2,2A.75.75,0,0,1,22,22.75Z" fill="#ccc"/>
          </g>
        </g>
        <g id="more_vert" transform="translate(389 19)">
          <g id="Group_8152" data-name="Group 8152" transform="translate(10 4)">
            <path id="Path_7741" data-name="Path 7741" d="M12.5,9A2.5,2.5,0,1,0,10,6.5,2.507,2.507,0,0,0,12.5,9Zm0,2.5A2.5,2.5,0,1,0,15,14,2.507,2.507,0,0,0,12.5,11.5Zm0,7.5A2.5,2.5,0,1,0,15,21.5,2.507,2.507,0,0,0,12.5,19Z" transform="translate(-10 -4)" fill="#ccc"/>
          </g>
        </g>
      </g>
    </g>
    <g id="Group_8158" data-name="Group 8158">
      <text id="Home" transform="translate(45 912)" fill="#ccc" font-size="10" font-family="Gilroy-Medium, Gilroy ☞" font-weight="500"><tspan x="-13.545" y="0">Home</tspan></text>
      <g id="vuesax_linear_home" data-name="vuesax/linear/home" transform="translate(-523 686)">
        <g id="home-2" data-name="home">
          <path id="Vector" d="M0,3.75A.75.75,0,0,1-.75,3V0A.75.75,0,0,1,0-.75.75.75,0,0,1,.75,0V3A.75.75,0,0,1,0,3.75Z" transform="translate(568 203)" fill="#ccc"/>
          <path id="Vector-2" data-name="Vector" d="M9.993-.75h0A3.847,3.847,0,0,1,12.4.062L19.332,5.6a4.187,4.187,0,0,1,1.382,3.617l-1.33,7.963a3.957,3.957,0,0,1-3.78,3.2H4.4a3.825,3.825,0,0,1-2.454-.93A3.827,3.827,0,0,1,.624,17.181L-.707,9.22A4.128,4.128,0,0,1,.677,5.6L7.6.051A3.818,3.818,0,0,1,9.993-.75ZM15.6,18.876a2.453,2.453,0,0,0,2.3-1.946l1.33-7.958a2.715,2.715,0,0,0-.841-2.2L11.465,1.232A2.378,2.378,0,0,0,9.993.75h0a2.349,2.349,0,0,0-1.451.471l-6.93,5.55a2.617,2.617,0,0,0-.84,2.2L2.1,16.933a2.45,2.45,0,0,0,2.3,1.944Z" transform="translate(557.997 190.184)" fill="#ccc"/>
          <path id="Vector-3" data-name="Vector" d="M0,0H24V24H0Z" transform="translate(556 188)" fill="none" opacity="0"/>
        </g>
      </g>
    </g>
    <g id="Group_8154" data-name="Group 8154" transform="translate(6)">
      <text id="Shorts" transform="translate(121 912)" fill="#ccc" font-size="10" font-family="Gilroy-Medium, Gilroy ☞" font-weight="500"><tspan x="-14.465" y="0">Shorts</tspan></text>
      <g id="Group_8153" data-name="Group 8153" transform="translate(-6965 -252)">
        <path id="Union_2" data-name="Union 2" d="M5.438,24.75v0a5.279,5.279,0,0,1-3.119-9.541,5.279,5.279,0,0,1-.43-9.365l10.2-5.886A5.278,5.278,0,0,1,17.839,8.79a5.279,5.279,0,0,1,.43,9.365l-10.2,5.887A5.281,5.281,0,0,1,5.438,24.75ZM14.72.75a3.773,3.773,0,0,0-1.885.507L2.639,7.143a3.779,3.779,0,0,0,1.645,7.043l2.466.162L3.545,16.2a3.779,3.779,0,1,0,3.779,6.544l10.2-5.887a3.778,3.778,0,0,0-1.646-7.042l-2.467-.162L16.613,7.8A3.778,3.778,0,0,0,18,2.639,3.792,3.792,0,0,0,14.72.75Z" transform="translate(7076 1126)" fill="#ccc"/>
        <path id="Path_7742" data-name="Path 7742" d="M64.2,37.873l5.415-3.136L64.2,31.6Z" transform="translate(7020.199 1103.264)" fill="#ccc"/>
      </g>
    </g>
    <g id="Group_8157" data-name="Group 8157">
      <text id="Library" transform="translate(380 912)" fill="#ccc" font-size="10" font-family="Gilroy-Medium, Gilroy ☞" font-weight="500"><tspan x="-15.645" y="0">Library</tspan></text>
      <g id="Group_8156" data-name="Group 8156" transform="translate(0 41)">
        <path id="Rectangle_124" data-name="Rectangle 124" d="M1.5,1.5v16h16V1.5H1.5M0,0H19V19H0Z" transform="translate(372 833)" fill="#ccc"/>
        <path id="Path_7743" data-name="Path 7743" d="M64.2,38.377l5.85-3.389L64.2,31.6Z" transform="translate(314.981 807.148)" fill="#ccc"/>
        <path id="Path_7744" data-name="Path 7744" d="M6713.3,856.372H6695.25V837.427h1.5v17.445H6713.3Z" transform="translate(-6326 -1)" fill="#ccc"/>
      </g>
    </g>
    <g id="Group_8198" data-name="Group 8198" transform="translate(0 20)">
      <rect id="Rectangle_121" data-name="Rectangle 121" width="428" height="54" transform="translate(0 64)" fill="#212121"/>
      <g id="Group_8197" data-name="Group 8197">
        <text id="HOME-3" data-name="HOME" transform="translate(20 97)" fill="#fff" font-size="14" font-family="Gilroy-SemiBold, Gilroy ☞" font-weight="600"><tspan x="0" y="0">HOME</tspan></text>
        <text id="VIDEOS" transform="translate(106 97)" fill="#ccc" font-size="14" font-family="Gilroy-SemiBold, Gilroy ☞" font-weight="600"><tspan x="0" y="0">VIDEOS</tspan></text>
        <text id="PLAYLISTS" transform="translate(202 97)" fill="#ccc" font-size="14" font-family="Gilroy-SemiBold, Gilroy ☞" font-weight="600"><tspan x="0" y="0">PLAYLISTS</tspan></text>
        <text id="COMMUNITY" transform="translate(314 97)" fill="#ccc" font-size="14" font-family="Gilroy-SemiBold, Gilroy ☞" font-weight="600"><tspan x="0" y="0">COMMUNITY</tspan></text>
        <rect id="Rectangle_125" data-name="Rectangle 125" width="82" height="4" transform="translate(0 113)" fill="#fff"/>
      </g>
    </g>
    <g id="Group_8199" data-name="Group 8199" transform="translate(0 20)">
      <g id="Group_8160" data-name="Group 8160" transform="translate(0 -36)">
        <circle id="Ellipse_113" data-name="Ellipse 113" cx="40" cy="40" r="40" transform="translate(20 319)"/>
        <path id="Ellipse_113_-_Outline" data-name="Ellipse 113 - Outline" d="M40,1A39.011,39.011,0,0,0,24.82,75.936,39.01,39.01,0,0,0,55.18,4.064,38.755,38.755,0,0,0,40,1m0-1A40,40,0,1,1,0,40,40,40,0,0,1,40,0Z" transform="translate(20 319)" fill="rgba(255,255,255,0.4)"/>
        <g id="Group_8316" data-name="Group 8316" transform="translate(39.808 338.481)">
          <path id="Path_7775" data-name="Path 7775" d="M0,25.643V14.95A14.9,14.9,0,0,1,14.955,0,14.656,14.656,0,0,1,29.311,14.651V25.643a3.661,3.661,0,0,1-3.664,3.664h0a3.664,3.664,0,0,1-3.664-3.664V14.828a7.46,7.46,0,0,0-7.059-7.5,7.331,7.331,0,0,0-7.6,7.324V25.643a3.664,3.664,0,0,1-3.664,3.664h0A3.664,3.664,0,0,1,0,25.643Z" transform="translate(0 0)" fill="#fff"/>
          <path id="Path_7776" data-name="Path 7776" d="M61.891,38.164v10.7A14.906,14.906,0,0,1,46.954,63.822,14.656,14.656,0,0,1,32.58,49.156V38.164A3.664,3.664,0,0,1,36.244,34.5h0a3.664,3.664,0,0,1,3.664,3.664V48.979a7.44,7.44,0,0,0,7.059,7.5,7.324,7.324,0,0,0,7.6-7.321V38.164a3.664,3.664,0,0,1,3.65-3.664h0a3.661,3.661,0,0,1,3.678,3.664Z" transform="translate(-21.507 -22.779)" fill="#fff"/>
        </g>
      </g>
      <g id="Group_8159" data-name="Group 8159" transform="translate(-8 -33)">
        <text id="Nusountara" transform="translate(120 353)" fill="#fff" font-size="24" font-family="Gilroy-Medium, Gilroy ☞" font-weight="500"><tspan x="0" y="0">Nusountara</tspan></text>
        <text id="SUBSCRIBED" transform="translate(120 379)" fill="#ccc" font-size="12" font-family="Gilroy-SemiBold, Gilroy ☞" font-weight="600" letter-spacing="0.024em"><tspan x="0" y="0">SUBSCRIBED</tspan></text>
      </g>
      <g id="vuesax_linear_notification-bing" data-name="vuesax/linear/notification-bing" transform="translate(266 137)">
        <g id="notification-bing">
          <path id="Vector-4" data-name="Vector" d="M0,4.08a.75.75,0,0,1-.75-.75V0A.75.75,0,0,1,0-.75.75.75,0,0,1,.75,0V3.33A.75.75,0,0,1,0,4.08Z" transform="translate(120 194.44)" fill="#ccc"/>
          <path id="Vector-5" data-name="Vector" d="M8.917-.75a7.437,7.437,0,0,1,7.42,7.408v2.1a4.546,4.546,0,0,0,.522,1.892l1.271,2.122a2.97,2.97,0,0,1-1.606,4.347,24.042,24.042,0,0,1-7.6,1.231,24.041,24.041,0,0,1-7.6-1.231,2.948,2.948,0,0,1-1.9-1.76,3,3,0,0,1,.29-2.585L.984,10.655A4.469,4.469,0,0,0,1.507,8.76V6.66A7.418,7.418,0,0,1,8.917-.75Zm0,17.6A22.544,22.544,0,0,0,16.051,15.7a1.47,1.47,0,0,0,.793-2.153l-1.27-2.12a5.991,5.991,0,0,1-.737-2.665V6.66a5.915,5.915,0,0,0-11.83,0v2.1a5.9,5.9,0,0,1-.738,2.667L1,13.545a1.494,1.494,0,0,0-.171,1.293,1.479,1.479,0,0,0,.965.86A22.543,22.543,0,0,0,8.922,16.853Z" transform="translate(111.103 190)" fill="#ccc"/>
          <path id="Vector-6" data-name="Vector" d="M3.33,4.08A4.105,4.105,0,0,1,.45,2.88,4.105,4.105,0,0,1-.75,0H.75a2.6,2.6,0,0,0,.76,1.82,2.6,2.6,0,0,0,1.82.76A2.583,2.583,0,0,0,5.91,0h1.5A4.085,4.085,0,0,1,3.33,4.08Z" transform="translate(116.67 206.82)" fill="#ccc"/>
          <path id="Vector-7" data-name="Vector" d="M0,0H24V24H0Z" transform="translate(108 188)" fill="none" opacity="0"/>
        </g>
      </g>
    </g>
    <g id="Group_8200" data-name="Group 8200" transform="translate(0 20)">
      <text id="Uploads" transform="translate(20 398)" fill="#fff" font-size="16" font-family="Gilroy-Medium, Gilroy ☞" font-weight="500"><tspan x="0" y="0">Uploads</tspan></text>
      <g id="Repeat_Grid_2" data-name="Repeat Grid 2" transform="translate(20 421)" clip-path="url(#clip-path)">
        <g id="Group_8164" data-name="Group 8164" transform="translate(-20 -477)">
          <rect id="Rectangle_128" data-name="Rectangle 128" width="160" height="90" transform="translate(20 477)" fill="#353535"/>
          <g id="Group_8163" data-name="Group 8163" transform="translate(0 2)">
            <g id="Group_8162" data-name="Group 8162">
              <rect id="Rectangle_129" data-name="Rectangle 129" width="184" height="11" rx="5.5" transform="translate(198 484)" fill="gray"/>
              <rect id="Rectangle_130" data-name="Rectangle 130" width="80" height="11" rx="5.5" transform="translate(198 503)" fill="gray"/>
              <rect id="Rectangle_131" data-name="Rectangle 131" width="36" height="6" rx="3" transform="translate(198 528)" fill="#606060"/>
              <rect id="Rectangle_132" data-name="Rectangle 132" width="36" height="6" rx="3" transform="translate(248 528)" fill="#606060"/>
              <circle id="Ellipse_114" data-name="Ellipse 114" cx="1" cy="1" r="1" transform="translate(240 530)" fill="#606060"/>
            </g>
            <g id="more_vert-2" data-name="more_vert" transform="translate(395.5 480.5)">
              <g id="Group_8152-2" data-name="Group 8152" transform="translate(10 4)">
                <path id="Path_7741-2" data-name="Path 7741" d="M11.25,6.5A1.25,1.25,0,1,0,10,5.25,1.254,1.254,0,0,0,11.25,6.5Zm0,1.25A1.25,1.25,0,1,0,12.5,9,1.254,1.254,0,0,0,11.25,7.75Zm0,3.75a1.25,1.25,0,1,0,1.25,1.25A1.254,1.254,0,0,0,11.25,11.5Z" transform="translate(-10 -4)" fill="#ccc"/>
              </g>
            </g>
          </g>
        </g>
        <g id="Group_8164-2" data-name="Group 8164" transform="translate(-20 -372)">
          <rect id="Rectangle_128-2" data-name="Rectangle 128" width="160" height="90" transform="translate(20 477)" fill="#353535"/>
          <g id="Group_8163-2" data-name="Group 8163" transform="translate(0 2)">
            <g id="Group_8162-2" data-name="Group 8162">
              <rect id="Rectangle_129-2" data-name="Rectangle 129" width="184" height="11" rx="5.5" transform="translate(198 484)" fill="gray"/>
              <rect id="Rectangle_130-2" data-name="Rectangle 130" width="80" height="11" rx="5.5" transform="translate(198 503)" fill="gray"/>
              <rect id="Rectangle_131-2" data-name="Rectangle 131" width="36" height="6" rx="3" transform="translate(198 528)" fill="#606060"/>
              <rect id="Rectangle_132-2" data-name="Rectangle 132" width="36" height="6" rx="3" transform="translate(248 528)" fill="#606060"/>
              <circle id="Ellipse_114-2" data-name="Ellipse 114" cx="1" cy="1" r="1" transform="translate(240 530)" fill="#606060"/>
            </g>
            <g id="more_vert-3" data-name="more_vert" transform="translate(395.5 480.5)">
              <g id="Group_8152-3" data-name="Group 8152" transform="translate(10 4)">
                <path id="Path_7741-3" data-name="Path 7741" d="M11.25,6.5A1.25,1.25,0,1,0,10,5.25,1.254,1.254,0,0,0,11.25,6.5Zm0,1.25A1.25,1.25,0,1,0,12.5,9,1.254,1.254,0,0,0,11.25,7.75Zm0,3.75a1.25,1.25,0,1,0,1.25,1.25A1.254,1.254,0,0,0,11.25,11.5Z" transform="translate(-10 -4)" fill="#ccc"/>
              </g>
            </g>
          </g>
        </g>
        <g id="Group_8164-3" data-name="Group 8164" transform="translate(-20 -267)">
          <rect id="Rectangle_128-3" data-name="Rectangle 128" width="160" height="90" transform="translate(20 477)" fill="#353535"/>
          <g id="Group_8163-3" data-name="Group 8163" transform="translate(0 2)">
            <g id="Group_8162-3" data-name="Group 8162">
              <rect id="Rectangle_129-3" data-name="Rectangle 129" width="184" height="11" rx="5.5" transform="translate(198 484)" fill="gray"/>
              <rect id="Rectangle_130-3" data-name="Rectangle 130" width="80" height="11" rx="5.5" transform="translate(198 503)" fill="gray"/>
              <rect id="Rectangle_131-3" data-name="Rectangle 131" width="36" height="6" rx="3" transform="translate(198 528)" fill="#606060"/>
              <rect id="Rectangle_132-3" data-name="Rectangle 132" width="36" height="6" rx="3" transform="translate(248 528)" fill="#606060"/>
              <circle id="Ellipse_114-3" data-name="Ellipse 114" cx="1" cy="1" r="1" transform="translate(240 530)" fill="#606060"/>
            </g>
            <g id="more_vert-4" data-name="more_vert" transform="translate(395.5 480.5)">
              <g id="Group_8152-4" data-name="Group 8152" transform="translate(10 4)">
                <path id="Path_7741-4" data-name="Path 7741" d="M11.25,6.5A1.25,1.25,0,1,0,10,5.25,1.254,1.254,0,0,0,11.25,6.5Zm0,1.25A1.25,1.25,0,1,0,12.5,9,1.254,1.254,0,0,0,11.25,7.75Zm0,3.75a1.25,1.25,0,1,0,1.25,1.25A1.254,1.254,0,0,0,11.25,11.5Z" transform="translate(-10 -4)" fill="#ccc"/>
              </g>
            </g>
          </g>
        </g>
        <g id="Group_8164-4" data-name="Group 8164" transform="translate(-20 -162)">
          <rect id="Rectangle_128-4" data-name="Rectangle 128" width="160" height="90" transform="translate(20 477)" fill="#353535"/>
          <g id="Group_8163-4" data-name="Group 8163" transform="translate(0 2)">
            <g id="Group_8162-4" data-name="Group 8162">
              <rect id="Rectangle_129-4" data-name="Rectangle 129" width="184" height="11" rx="5.5" transform="translate(198 484)" fill="gray"/>
              <rect id="Rectangle_130-4" data-name="Rectangle 130" width="80" height="11" rx="5.5" transform="translate(198 503)" fill="gray"/>
              <rect id="Rectangle_131-4" data-name="Rectangle 131" width="36" height="6" rx="3" transform="translate(198 528)" fill="#606060"/>
              <rect id="Rectangle_132-4" data-name="Rectangle 132" width="36" height="6" rx="3" transform="translate(248 528)" fill="#606060"/>
              <circle id="Ellipse_114-4" data-name="Ellipse 114" cx="1" cy="1" r="1" transform="translate(240 530)" fill="#606060"/>
            </g>
            <g id="more_vert-5" data-name="more_vert" transform="translate(395.5 480.5)">
              <g id="Group_8152-5" data-name="Group 8152" transform="translate(10 4)">
                <path id="Path_7741-5" data-name="Path 7741" d="M11.25,6.5A1.25,1.25,0,1,0,10,5.25,1.254,1.254,0,0,0,11.25,6.5Zm0,1.25A1.25,1.25,0,1,0,12.5,9,1.254,1.254,0,0,0,11.25,7.75Zm0,3.75a1.25,1.25,0,1,0,1.25,1.25A1.254,1.254,0,0,0,11.25,11.5Z" transform="translate(-10 -4)" fill="#ccc"/>
              </g>
            </g>
          </g>
        </g>
      </g>
    </g>
    <g id="Group_8168" data-name="Group 8168" transform="translate(0 20)">
      <rect id="Rectangle_126" data-name="Rectangle 126" width="428" height="150" transform="translate(0 117)" fill="#7a43ff"/>
      <g id="Group_8167" data-name="Group 8167" transform="translate(0 -5)">
        <g id="logo-type" transform="translate(142.102 198)">
          <path id="Path_3" data-name="Path 3" d="M558.388,635.714a4.287,4.287,0,0,1-2.268-.591,4.158,4.158,0,0,1-1.519-1.581,4.451,4.451,0,0,1-.541-2.174v-6.721a1.309,1.309,0,0,0-.187-.687,1.43,1.43,0,0,0-.5-.5,1.31,1.31,0,0,0-.686-.187,1.257,1.257,0,0,0-.676.187,1.466,1.466,0,0,0-.489.5,1.312,1.312,0,0,0-.187.687v10.818h-2.975V625a4.437,4.437,0,0,1,.541-2.184,4.178,4.178,0,0,1,1.519-1.571,4.285,4.285,0,0,1,2.268-.591,4.329,4.329,0,0,1,2.289.591,4.18,4.18,0,0,1,1.518,1.571,4.438,4.438,0,0,1,.541,2.184v6.72a1.3,1.3,0,0,0,.187.686,1.459,1.459,0,0,0,.489.5,1.256,1.256,0,0,0,.676.187,1.313,1.313,0,0,0,.687-.187,1.432,1.432,0,0,0,.5-.5,1.306,1.306,0,0,0,.187-.686V620.9h2.975v10.463a4.457,4.457,0,0,1-.541,2.174,4.163,4.163,0,0,1-1.516,1.585A4.329,4.329,0,0,1,558.388,635.714Z" transform="translate(-548.36 -620.633)" fill="#fff"/>
          <path id="Path_4" data-name="Path 4" d="M586.025,635.928a6.544,6.544,0,0,1-3.131-.728,5.355,5.355,0,0,1-2.143-2.07,6.244,6.244,0,0,1-.78-3.193v-8.821h2.975v9.008a3.388,3.388,0,0,0,.376,1.592,2.954,2.954,0,0,0,1.071,1.155,3.048,3.048,0,0,0,4.337-1.155,3.388,3.388,0,0,0,.376-1.592v-9.008h2.975v8.821a6.247,6.247,0,0,1-.78,3.193,5.355,5.355,0,0,1-2.143,2.07A6.542,6.542,0,0,1,586.025,635.928Z" transform="translate(-562.995 -620.847)" fill="#fff"/>
          <path id="Path_5" data-name="Path 5" d="M607.191,635.678v-2.621h6.241a1.561,1.561,0,0,0,.832-.229,1.753,1.753,0,0,0,.6-.613,1.62,1.62,0,0,0,.229-.843,1.658,1.658,0,0,0-.229-.863,1.759,1.759,0,0,0-.6-.614,1.566,1.566,0,0,0-.832-.229H611a4.907,4.907,0,0,1-2.226-.5,3.9,3.9,0,0,1-1.591-1.446,4.2,4.2,0,0,1-.591-2.278,4.456,4.456,0,0,1,.562-2.278,4.023,4.023,0,0,1,1.519-1.508,4.242,4.242,0,0,1,2.122-.541h6.325v2.623h-6.035a1.437,1.437,0,0,0-.77.219,1.557,1.557,0,0,0-.552.572,1.685,1.685,0,0,0,0,1.581,1.51,1.51,0,0,0,1.321.77H613.6a5.029,5.029,0,0,1,2.351.52,3.79,3.79,0,0,1,1.55,1.456,4.227,4.227,0,0,1,.551,2.185,5.155,5.155,0,0,1-.572,2.517,3.931,3.931,0,0,1-1.541,1.58,4.3,4.3,0,0,1-2.133.541Z" transform="translate(-575.32 -620.847)" fill="#fff"/>
          <path id="Path_6" data-name="Path 6" d="M638.088,635.717a8.023,8.023,0,0,1-3.152-.593,7.107,7.107,0,0,1-2.4-1.633,7.314,7.314,0,0,1-1.539-2.413,7.928,7.928,0,0,1-.541-2.934,7.844,7.844,0,0,1,.541-2.923,7.349,7.349,0,0,1,1.54-2.4,7.012,7.012,0,0,1,2.4-1.621,8.815,8.815,0,0,1,6.3,0,7.01,7.01,0,0,1,2.4,1.623,7.37,7.37,0,0,1,1.54,2.4,7.855,7.855,0,0,1,.54,2.923,7.938,7.938,0,0,1-.54,2.934,7.335,7.335,0,0,1-1.54,2.413,7.107,7.107,0,0,1-2.4,1.633,8.02,8.02,0,0,1-3.151.592Zm0-2.643a4.655,4.655,0,0,0,1.851-.364,4.361,4.361,0,0,0,1.487-1.04,4.759,4.759,0,0,0,.978-1.571,5.737,5.737,0,0,0,0-3.911,4.643,4.643,0,0,0-.978-1.557,4.434,4.434,0,0,0-1.487-1.03,4.886,4.886,0,0,0-3.7,0,4.427,4.427,0,0,0-1.487,1.03,4.634,4.634,0,0,0-.978,1.557,5.746,5.746,0,0,0,0,3.911,4.749,4.749,0,0,0,.978,1.571,4.356,4.356,0,0,0,1.487,1.04A4.657,4.657,0,0,0,638.088,633.075Z" transform="translate(-586.37 -620.615)" fill="#fff"/>
          <path id="Path_7" data-name="Path 7" d="M668.621,635.928a6.54,6.54,0,0,1-3.131-.728,5.348,5.348,0,0,1-2.143-2.07,6.24,6.24,0,0,1-.78-3.193v-8.821h2.975v9.008a3.387,3.387,0,0,0,.376,1.592,2.959,2.959,0,0,0,1.071,1.155,3.047,3.047,0,0,0,4.338-1.155,3.388,3.388,0,0,0,.376-1.592v-9.008h2.974v8.821a6.242,6.242,0,0,1-.78,3.193,5.351,5.351,0,0,1-2.143,2.07A6.541,6.541,0,0,1,668.621,635.928Z" transform="translate(-601.238 -620.847)" fill="#fff"/>
          <path id="Path_8" data-name="Path 8" d="M690.151,635.463v-8.821a6.242,6.242,0,0,1,.78-3.193,5.356,5.356,0,0,1,2.142-2.07,7.1,7.1,0,0,1,6.263,0,5.355,5.355,0,0,1,2.142,2.07,6.244,6.244,0,0,1,.78,3.193v8.821h-2.974v-9.008a3.449,3.449,0,0,0-.376-1.6,2.891,2.891,0,0,0-1.061-1.155,3.365,3.365,0,0,0-3.276,0,2.865,2.865,0,0,0-1.071,1.155,3.449,3.449,0,0,0-.376,1.6v9.008Z" transform="translate(-614.01 -620.632)" fill="#fff"/>
          <path id="Path_9" data-name="Path 9" d="M719.856,635.68V623.74H715.8v-2.621h11.089v2.621h-4.057v11.942Z" transform="translate(-625.886 -620.848)" fill="#fff"/>
          <path id="Path_10" data-name="Path 10" d="M739.545,635.463v-8.821a6.244,6.244,0,0,1,.78-3.193,5.349,5.349,0,0,1,2.143-2.07,7.1,7.1,0,0,1,6.262,0,5.352,5.352,0,0,1,2.143,2.07,6.242,6.242,0,0,1,.78,3.193v8.821h-2.975v-3.932H742.52v3.932Zm2.975-6.551h6.158v-2.457a3.447,3.447,0,0,0-.376-1.6,2.892,2.892,0,0,0-1.061-1.155,3.365,3.365,0,0,0-3.276,0,2.866,2.866,0,0,0-1.071,1.155,3.45,3.45,0,0,0-.376,1.6Z" transform="translate(-636.88 -620.632)" fill="#fff"/>
          <path id="Path_11" data-name="Path 11" d="M767.325,635.678V621.116h6.512a5.271,5.271,0,0,1,2.61.655,4.968,4.968,0,0,1,1.872,1.82,5.578,5.578,0,0,1,.073,5.262,4.923,4.923,0,0,1-1.665,1.789l3.037,5.034h-3.6l-2.309-4.2H770.3v4.2Zm2.974-6.824h3.183a2.76,2.76,0,0,0,1.289-.3,2.288,2.288,0,0,0,.926-.874,2.642,2.642,0,0,0,.343-1.383,2.582,2.582,0,0,0-.353-1.384,2.387,2.387,0,0,0-.926-.874,2.7,2.7,0,0,0-1.279-.3H770.3Z" transform="translate(-649.743 -620.847)" fill="#fff"/>
          <path id="Path_12" data-name="Path 12" d="M793.59,635.463v-8.821a6.243,6.243,0,0,1,.78-3.193,5.356,5.356,0,0,1,2.143-2.07,7.1,7.1,0,0,1,6.262,0,5.356,5.356,0,0,1,2.143,2.07,6.243,6.243,0,0,1,.78,3.194v8.821h-2.974v-3.932h-6.159v3.932Zm2.974-6.551h6.159v-2.457a3.45,3.45,0,0,0-.376-1.6,2.892,2.892,0,0,0-1.061-1.155,3.365,3.365,0,0,0-3.276,0,2.865,2.865,0,0,0-1.071,1.155,3.449,3.449,0,0,0-.376,1.6Z" transform="translate(-661.903 -620.632)" fill="#fff"/>
        </g>
        <g id="Group_8166" data-name="Group 8166">
          <rect id="Rectangle_133" data-name="Rectangle 133" width="388" height="33" rx="16.5" transform="translate(20 228)"/>
          <path id="Rectangle_133_-_Outline" data-name="Rectangle 133 - Outline" d="M16.5-.5h355a17,17,0,0,1,12.021,29.021A16.889,16.889,0,0,1,371.5,33.5H16.5A17,17,0,0,1,4.479,4.479,16.889,16.889,0,0,1,16.5-.5Zm355,33a16,16,0,0,0,0-32H16.5a16,16,0,0,0,0,32Z" transform="translate(20 228)" fill="rgba(255,255,255,0.2)"/>
          <g id="Group_8165" data-name="Group 8165" transform="translate(-19 2)">
            <text id="unhide_places" data-name="unhide places" transform="translate(52 248)" fill="#fff" font-size="14" font-family="MuseoModerno-SemiBold, MuseoModerno" font-weight="600"><tspan x="0" y="0">unhide </tspan><tspan y="0" fill="#33c3ff">places</tspan></text>
            <text id="unmask_people" data-name="unmask people" transform="translate(174 248)" fill="#fff" font-size="14" font-family="MuseoModerno-SemiBold, MuseoModerno" font-weight="600"><tspan x="0" y="0">unmask </tspan><tspan y="0" fill="#33c3ff">people</tspan></text>
            <text id="unleash_parties" data-name="unleash parties" transform="translate(309 248)" fill="#fff" font-size="14" font-family="MuseoModerno-SemiBold, MuseoModerno" font-weight="600"><tspan x="0" y="0">unleash </tspan><tspan y="0" fill="#33c3ff">parties</tspan></text>
            <path id="Line_1" data-name="Line 1" d="M.25,6h-.5V0h.5Z" transform="translate(159.5 240.5)" fill="rgba(255,255,255,0.4)"/>
            <path id="Line_2" data-name="Line 2" d="M.25,6h-.5V0h.5Z" transform="translate(294.5 240.5)" fill="rgba(255,255,255,0.4)"/>
          </g>
        </g>
        <g id="Group_8315" data-name="Group 8315" transform="translate(193 142.464)">
          <path id="Path_7775-2" data-name="Path 7775" d="M0,27.064V15.779A15.722,15.722,0,0,1,15.783,0,15.468,15.468,0,0,1,30.935,15.463v11.6a3.863,3.863,0,0,1-3.867,3.867h0A3.867,3.867,0,0,1,23.2,27.064V15.65a7.873,7.873,0,0,0-7.45-7.917,7.737,7.737,0,0,0-8.017,7.73v11.6a3.867,3.867,0,0,1-3.867,3.867h0A3.867,3.867,0,0,1,0,27.064Z" transform="translate(0 0)" fill="#fff"/>
          <path id="Path_7776-2" data-name="Path 7776" d="M63.515,38.367v11.3A15.732,15.732,0,0,1,47.75,65.446,15.468,15.468,0,0,1,32.58,49.968v-11.6A3.867,3.867,0,0,1,36.447,34.5h0a3.867,3.867,0,0,1,3.867,3.867V49.781a7.853,7.853,0,0,0,7.45,7.913,7.73,7.73,0,0,0,8.017-7.727v-11.6A3.867,3.867,0,0,1,59.634,34.5h0a3.863,3.863,0,0,1,3.881,3.867Z" transform="translate(-20.893 -22.129)" fill="#fff"/>
        </g>
      </g>
    </g>
    <circle id="Ellipse_118" data-name="Ellipse 118" cx="3" cy="3" r="3" transform="translate(306 892)" fill="red"/>
    <path id="Ellipse_118_-_Outline" data-name="Ellipse 118 - Outline" d="M3-.5A3.5,3.5,0,1,1-.5,3,3.5,3.5,0,0,1,3-.5Zm0,6A2.5,2.5,0,1,0,.5,3,2.5,2.5,0,0,0,3,5.5Z" transform="translate(306 892)" fill="#212121"/>
  </g>
</svg>
