<svg xmlns="http://www.w3.org/2000/svg" width="503.678" height="512" viewBox="0 0 503.678 512">
  <g id="Group_8321" data-name="Group 8321" transform="translate(0 0)">
    <path id="Path_7775" data-name="Path 7775" d="M0,319.9V186.539C0,83.956,83.847-1.884,186.515.024A182.785,182.785,0,0,1,365.569,182.809V319.9a45.654,45.654,0,0,1-45.7,45.7h0a45.7,45.7,0,0,1-45.7-45.7V185.013c0-49.342-38.532-91.731-88.044-93.554a91.435,91.435,0,0,0-94.741,91.35V319.9a45.7,45.7,0,0,1-45.7,45.7h0A45.7,45.7,0,0,1,0,319.9Z" transform="translate(0 0.007)" fill="#fff"/>
    <path id="Path_7776" data-name="Path 7776" d="M398.15,80.2V213.682c0,102.456-83.847,188.3-186.3,186.515A182.785,182.785,0,0,1,32.58,217.285V80.2a45.7,45.7,0,0,1,45.7-45.7h0a45.7,45.7,0,0,1,45.7,45.7V215.081c0,49.554,38.532,91.774,88.044,93.512a91.35,91.35,0,0,0,94.741-91.308V80.2a45.7,45.7,0,0,1,45.527-45.7h0A45.654,45.654,0,0,1,398.15,80.2Z" transform="translate(105.528 111.776)" fill="#fff"/>
  </g>
</svg>
