<svg xmlns="http://www.w3.org/2000/svg" width="47.22" height="48" viewBox="0 0 47.22 48">
  <g id="Group_8310" data-name="Group 8310" transform="translate(0 0)">
    <path id="Path_7775" data-name="Path 7775" d="M0,29.984v-12.5A17.418,17.418,0,0,1,17.486,0,17.136,17.136,0,0,1,34.272,17.132V29.984a4.28,4.28,0,0,1-4.284,4.284h0A4.284,4.284,0,0,1,25.7,29.984V17.338A8.722,8.722,0,0,0,17.45,8.568a8.572,8.572,0,0,0-8.882,8.564V29.984a4.284,4.284,0,0,1-4.284,4.284h0A4.284,4.284,0,0,1,0,29.984Z" transform="translate(0 0.007)" fill="#7a43ff"/>
    <path id="Path_7776" data-name="Path 7776" d="M66.852,38.784V51.3A17.429,17.429,0,0,1,49.386,68.784,17.136,17.136,0,0,1,32.58,51.636V38.784A4.284,4.284,0,0,1,36.864,34.5h0a4.284,4.284,0,0,1,4.284,4.284V51.429A8.7,8.7,0,0,0,49.4,60.2a8.564,8.564,0,0,0,8.882-8.56V38.784A4.284,4.284,0,0,1,62.552,34.5h0a4.28,4.28,0,0,1,4.3,4.284Z" transform="translate(-19.632 -20.787)" fill="#7a43ff"/>
  </g>
</svg>
