<svg id="logo-type" xmlns="http://www.w3.org/2000/svg" width="210.028" height="22.06" viewBox="0 0 210.028 22.06">
  <path id="Path_3" data-name="Path 3" d="M563.007,642.651a6.261,6.261,0,0,1-3.312-.863,6.073,6.073,0,0,1-2.218-2.309,6.5,6.5,0,0,1-.79-3.176v-9.817a1.911,1.911,0,0,0-.274-1,2.089,2.089,0,0,0-.729-.729,1.914,1.914,0,0,0-1-.273,1.836,1.836,0,0,0-.987.273,2.143,2.143,0,0,0-.715.729,1.918,1.918,0,0,0-.273,1v15.8h-4.345V627a6.481,6.481,0,0,1,.79-3.191,6.1,6.1,0,0,1,2.218-2.294,6.26,6.26,0,0,1,3.312-.863,6.324,6.324,0,0,1,3.343.863,6.1,6.1,0,0,1,2.217,2.294,6.482,6.482,0,0,1,.791,3.191v9.815a1.907,1.907,0,0,0,.274,1,2.132,2.132,0,0,0,.714.729,1.835,1.835,0,0,0,.987.273,1.918,1.918,0,0,0,1-.273,2.093,2.093,0,0,0,.729-.729,1.907,1.907,0,0,0,.274-1v-15.8h4.345V636.3a6.51,6.51,0,0,1-.79,3.176,6.079,6.079,0,0,1-2.215,2.315A6.324,6.324,0,0,1,563.007,642.651Z" transform="translate(-548.36 -620.623)" fill="#fff"/>
  <path id="Path_4" data-name="Path 4" d="M588.815,642.751a9.556,9.556,0,0,1-4.573-1.064,7.821,7.821,0,0,1-3.129-3.024,9.117,9.117,0,0,1-1.14-4.664V621.116h4.345v13.157a4.947,4.947,0,0,0,.549,2.325,4.314,4.314,0,0,0,1.565,1.686,4.452,4.452,0,0,0,6.335-1.686,4.947,4.947,0,0,0,.549-2.325V621.116h4.345V634a9.125,9.125,0,0,1-1.14,4.664,7.821,7.821,0,0,1-3.13,3.024,9.555,9.555,0,0,1-4.576,1.063Z" transform="translate(-555.177 -620.723)" fill="#fff"/>
  <path id="Path_5" data-name="Path 5" d="M607.469,642.386v-3.828h9.115a2.281,2.281,0,0,0,1.216-.335,2.563,2.563,0,0,0,.881-.9,2.365,2.365,0,0,0,.335-1.231,2.423,2.423,0,0,0-.335-1.261,2.571,2.571,0,0,0-.881-.9,2.287,2.287,0,0,0-1.216-.334h-3.556a7.167,7.167,0,0,1-3.252-.729,5.7,5.7,0,0,1-2.324-2.112,6.133,6.133,0,0,1-.863-3.327,6.51,6.51,0,0,1,.82-3.327,5.876,5.876,0,0,1,2.218-2.2,6.2,6.2,0,0,1,3.1-.79h9.238v3.831h-8.815a2.1,2.1,0,0,0-1.124.319,2.274,2.274,0,0,0-.806.835,2.461,2.461,0,0,0,0,2.31,2.206,2.206,0,0,0,1.93,1.124h3.677a7.345,7.345,0,0,1,3.434.76,5.535,5.535,0,0,1,2.264,2.127,6.174,6.174,0,0,1,.805,3.191,7.529,7.529,0,0,1-.836,3.676,5.743,5.743,0,0,1-2.25,2.307,6.275,6.275,0,0,1-3.115.79Z" transform="translate(-560.918 -620.723)" fill="#fff"/>
  <path id="Path_6" data-name="Path 6" d="M641.6,642.673a11.719,11.719,0,0,1-4.6-.867,10.378,10.378,0,0,1-3.509-2.385,10.682,10.682,0,0,1-2.249-3.524,11.579,11.579,0,0,1-.79-4.285,11.458,11.458,0,0,1,.79-4.269,10.733,10.733,0,0,1,2.249-3.51A10.242,10.242,0,0,1,637,621.466a12.877,12.877,0,0,1,9.207,0,10.241,10.241,0,0,1,3.509,2.37,10.766,10.766,0,0,1,2.25,3.51,11.478,11.478,0,0,1,.789,4.269,11.6,11.6,0,0,1-.789,4.285,10.712,10.712,0,0,1-2.25,3.524,10.379,10.379,0,0,1-3.509,2.385,11.713,11.713,0,0,1-4.6.864Zm0-3.86a6.8,6.8,0,0,0,2.7-.532,6.371,6.371,0,0,0,2.173-1.518,6.954,6.954,0,0,0,1.428-2.294,8.378,8.378,0,0,0,0-5.713,6.783,6.783,0,0,0-1.428-2.275,6.475,6.475,0,0,0-2.173-1.5,7.137,7.137,0,0,0-5.408,0,6.468,6.468,0,0,0-2.173,1.5,6.771,6.771,0,0,0-1.428,2.275,8.392,8.392,0,0,0,0,5.713,6.941,6.941,0,0,0,1.428,2.294,6.364,6.364,0,0,0,2.173,1.518A6.8,6.8,0,0,0,641.6,638.814Z" transform="translate(-566.066 -620.615)" fill="#fff"/>
  <path id="Path_7" data-name="Path 7" d="M671.411,642.751a9.552,9.552,0,0,1-4.573-1.064,7.811,7.811,0,0,1-3.13-3.024,9.118,9.118,0,0,1-1.14-4.664V621.116h4.345v13.157a4.947,4.947,0,0,0,.549,2.325,4.32,4.32,0,0,0,1.565,1.686,4.451,4.451,0,0,0,6.336-1.686,4.946,4.946,0,0,0,.549-2.325V621.116h4.344V634a9.118,9.118,0,0,1-1.14,4.664,7.816,7.816,0,0,1-3.129,3.023,9.552,9.552,0,0,1-4.577,1.063Z" transform="translate(-572.991 -620.723)" fill="#fff"/>
  <path id="Path_8" data-name="Path 8" d="M690.152,642.286V629.4a9.119,9.119,0,0,1,1.139-4.664,7.82,7.82,0,0,1,3.13-3.024,10.365,10.365,0,0,1,9.147,0,7.82,7.82,0,0,1,3.129,3.024,9.118,9.118,0,0,1,1.139,4.664v12.883h-4.344V629.129a5.038,5.038,0,0,0-.549-2.34,4.223,4.223,0,0,0-1.549-1.687,4.915,4.915,0,0,0-4.784,0,4.185,4.185,0,0,0-1.565,1.687,5.039,5.039,0,0,0-.549,2.34v13.157Z" transform="translate(-578.941 -620.623)" fill="#fff"/>
  <path id="Path_9" data-name="Path 9" d="M721.724,642.387V624.947H715.8v-3.828H732v3.828h-5.926v17.442Z" transform="translate(-584.473 -620.724)" fill="#fff"/>
  <path id="Path_10" data-name="Path 10" d="M739.546,642.286V629.4a9.118,9.118,0,0,1,1.14-4.664,7.812,7.812,0,0,1,3.129-3.024,10.364,10.364,0,0,1,9.146,0,7.816,7.816,0,0,1,3.129,3.024,9.118,9.118,0,0,1,1.14,4.664v12.883h-4.345v-5.743h-8.994v5.743Zm4.345-9.569h8.994v-3.588a5.038,5.038,0,0,0-.549-2.34,4.226,4.226,0,0,0-1.55-1.687,4.915,4.915,0,0,0-4.784,0,4.186,4.186,0,0,0-1.565,1.687,5.039,5.039,0,0,0-.549,2.34Z" transform="translate(-589.594 -620.623)" fill="#fff"/>
  <path id="Path_11" data-name="Path 11" d="M767.325,642.386v-21.27h9.511a7.7,7.7,0,0,1,3.813.957,7.258,7.258,0,0,1,2.735,2.659,8.147,8.147,0,0,1,.107,7.686,7.192,7.192,0,0,1-2.431,2.613l4.436,7.353H780.24l-3.373-6.138h-5.2v6.138Zm4.344-9.966h4.649a4.031,4.031,0,0,0,1.882-.441,3.342,3.342,0,0,0,1.352-1.276,3.858,3.858,0,0,0,.5-2.02,3.772,3.772,0,0,0-.516-2.021,3.484,3.484,0,0,0-1.353-1.276,3.945,3.945,0,0,0-1.868-.441h-4.649Z" transform="translate(-595.586 -620.723)" fill="#fff"/>
  <path id="Path_12" data-name="Path 12" d="M793.591,642.286V629.4a9.117,9.117,0,0,1,1.139-4.664,7.82,7.82,0,0,1,3.129-3.024,10.365,10.365,0,0,1,9.147,0,7.82,7.82,0,0,1,3.129,3.024,9.118,9.118,0,0,1,1.139,4.664v12.883h-4.344v-5.743h-9v5.743Zm4.344-9.569h9v-3.588a5.038,5.038,0,0,0-.549-2.34,4.223,4.223,0,0,0-1.549-1.687,4.914,4.914,0,0,0-4.784,0,4.185,4.185,0,0,0-1.565,1.687,5.039,5.039,0,0,0-.549,2.34Z" transform="translate(-601.25 -620.623)" fill="#fff"/>
</svg>
