<svg xmlns="http://www.w3.org/2000/svg" width="216.092" height="22.697" viewBox="0 0 216.092 22.697">
  <g id="Group_8322" data-name="Group 8322" transform="translate(-59.081 -13.205)">
    <path id="Path_7765" data-name="Path 7765" d="M163.734,55.932a6.414,6.414,0,0,1-3.41-.894,6.2,6.2,0,0,1-2.281-2.384,6.66,6.66,0,0,1-.815-3.267V39.3a1.943,1.943,0,0,0-.282-1.033,2.214,2.214,0,0,0-.747-.751,1.987,1.987,0,0,0-1.033-.278,1.9,1.9,0,0,0-1.017.278,2.241,2.241,0,0,0-.731.751,1.944,1.944,0,0,0-.282,1.033V55.555h-4.467V39.834a6.676,6.676,0,0,1,.795-3.283,6.259,6.259,0,0,1,2.285-2.361,7.022,7.022,0,0,1,6.843,0,6.259,6.259,0,0,1,2.285,2.361,6.677,6.677,0,0,1,.795,3.283V49.928a1.987,1.987,0,0,0,.282,1.033,2.182,2.182,0,0,0,.755.751,1.888,1.888,0,0,0,1.013.278,1.987,1.987,0,0,0,1.033-.278,2.126,2.126,0,0,0,.751-.751,1.987,1.987,0,0,0,.282-1.033V33.674h4.471V49.4a6.7,6.7,0,0,1-.795,3.255,6.223,6.223,0,0,1-2.281,2.384A6.494,6.494,0,0,1,163.734,55.932Z" transform="translate(-89.586 -20.064)" fill="#fff"/>
    <path id="Path_7766" data-name="Path 7766" d="M221.951,56.5a9.8,9.8,0,0,1-4.705-1.1,8,8,0,0,1-3.219-3.108,9.383,9.383,0,0,1-1.172-4.8V34.24h4.467V47.776a5.119,5.119,0,0,0,.564,2.384,4.407,4.407,0,0,0,1.59,1.733,4.948,4.948,0,0,0,4.924,0,4.455,4.455,0,0,0,1.59-1.733,5.071,5.071,0,0,0,.564-2.384V34.24h4.471V47.493a9.423,9.423,0,0,1-1.172,4.8,8.044,8.044,0,0,1-3.219,3.108A9.828,9.828,0,0,1,221.951,56.5Z" transform="translate(-128.263 -20.63)" fill="#fff"/>
    <path id="Path_7767" data-name="Path 7767" d="M267.814,56.15V52.212h9.379a2.384,2.384,0,0,0,1.248-.342,2.615,2.615,0,0,0,.906-.922,2.432,2.432,0,0,0,.346-1.268,2.468,2.468,0,0,0-.346-1.3,2.6,2.6,0,0,0-.906-.926,2.384,2.384,0,0,0-1.248-.342h-3.66a7.352,7.352,0,0,1-3.342-.751,5.846,5.846,0,0,1-2.384-2.174,6.287,6.287,0,0,1-.89-3.422,6.68,6.68,0,0,1,.827-3.418,6.069,6.069,0,0,1,2.281-2.269,6.382,6.382,0,0,1,3.179-.795h9.522v3.938H273.66a2.162,2.162,0,0,0-1.149.318,2.325,2.325,0,0,0-.831.858,2.547,2.547,0,0,0,0,2.384,2.285,2.285,0,0,0,1.987,1.156h3.779a7.551,7.551,0,0,1,3.533.795,5.675,5.675,0,0,1,2.329,2.186,6.358,6.358,0,0,1,.831,3.283,7.757,7.757,0,0,1-.858,3.783,5.961,5.961,0,0,1-2.317,2.384,6.45,6.45,0,0,1-3.2.795Z" transform="translate(-160.84 -20.659)" fill="#fff"/>
    <path id="Path_7768" data-name="Path 7768" d="M326.823,55.916a12.026,12.026,0,0,1-4.737-.894,10.658,10.658,0,0,1-3.608-2.452,10.968,10.968,0,0,1-2.313-3.628,12.284,12.284,0,0,1,0-8.8,11,11,0,0,1,2.313-3.608,10.459,10.459,0,0,1,3.608-2.44,13.269,13.269,0,0,1,9.474,0,10.5,10.5,0,0,1,3.608,2.44,11.005,11.005,0,0,1,2.3,3.608,12.284,12.284,0,0,1,0,8.8,10.969,10.969,0,0,1-2.313,3.628,10.7,10.7,0,0,1-3.608,2.452A12.041,12.041,0,0,1,326.823,55.916Zm0-3.974A6.99,6.99,0,0,0,329.6,51.4a6.6,6.6,0,0,0,2.233-1.574,7.153,7.153,0,0,0,1.47-2.361,8.616,8.616,0,0,0,0-5.878,6.938,6.938,0,0,0-1.47-2.345,6.68,6.68,0,0,0-2.233-1.55,7.38,7.38,0,0,0-5.564,0,6.7,6.7,0,0,0-2.237,1.55,6.932,6.932,0,0,0-1.466,2.345,8.616,8.616,0,0,0,0,5.878,7.153,7.153,0,0,0,1.466,2.361,6.613,6.613,0,0,0,2.237,1.59A6.99,6.99,0,0,0,326.823,51.942Z" transform="translate(-190.028 -20.015)" fill="#fff"/>
    <path id="Path_7769" data-name="Path 7769" d="M389.651,56.5a9.816,9.816,0,0,1-4.705-1.1,8.043,8.043,0,0,1-3.219-3.108,9.382,9.382,0,0,1-1.172-4.8V34.24h4.471V47.776a5.115,5.115,0,0,0,.56,2.384,4.447,4.447,0,0,0,1.613,1.733,4.582,4.582,0,0,0,6.517-1.733,5.115,5.115,0,0,0,.56-2.384V34.24h4.471V47.493a9.383,9.383,0,0,1-1.172,4.8,8.043,8.043,0,0,1-3.219,3.108A9.816,9.816,0,0,1,389.651,56.5Z" transform="translate(-229.319 -20.63)" fill="#fff"/>
    <path id="Path_7770" data-name="Path 7770" d="M436.565,55.585V42.351a9.359,9.359,0,0,1,1.172-4.8,7.98,7.98,0,0,1,3.219-3.112,10.674,10.674,0,0,1,9.411,0,8.028,8.028,0,0,1,3.219,3.112,9.4,9.4,0,0,1,1.192,4.8V55.585h-4.491V42.049a5.166,5.166,0,0,0-.564-2.408,4.324,4.324,0,0,0-1.59-1.733,5.055,5.055,0,0,0-4.924,0,4.28,4.28,0,0,0-1.59,1.733,5.217,5.217,0,0,0-.564,2.408V55.585Z" transform="translate(-263.07 -20.093)" fill="#fff"/>
    <path id="Path_7771" data-name="Path 7771" d="M494.744,56.121V38.178h-6.1V34.24H505.3v3.938h-6.1V56.121Z" transform="translate(-294.452 -20.63)" fill="#fff"/>
    <path id="Path_7772" data-name="Path 7772" d="M536.855,55.585V42.351a9.359,9.359,0,0,1,1.172-4.8,7.979,7.979,0,0,1,3.219-3.112,10.674,10.674,0,0,1,9.411,0,8.028,8.028,0,0,1,3.219,3.112,9.359,9.359,0,0,1,1.172,4.8V55.585h-4.471V49.675h-9.252v5.909Zm4.471-9.848h9.252V42.049a5.167,5.167,0,0,0-.552-2.408,4.324,4.324,0,0,0-1.59-1.733,5.055,5.055,0,0,0-4.924,0,4.332,4.332,0,0,0-1.609,1.733,5.215,5.215,0,0,0-.56,2.408Z" transform="translate(-323.504 -20.093)" fill="#fff"/>
    <path id="Path_7773" data-name="Path 7773" d="M593.26,56.12V34.239h9.784a7.877,7.877,0,0,1,3.922.986,7.459,7.459,0,0,1,2.814,2.734,8.373,8.373,0,0,1,.111,7.908,7.448,7.448,0,0,1-2.5,2.69l4.566,7.551h-5.409l-3.453-6.3h-5.361V56.12Zm4.471-10.253H602.5a4.164,4.164,0,0,0,1.939-.453A3.449,3.449,0,0,0,605.83,44.1a3.974,3.974,0,0,0,.517-2.078,3.875,3.875,0,0,0-.533-2.078,3.576,3.576,0,0,0-1.391-1.315,4.066,4.066,0,0,0-1.923-.453h-4.769Z" transform="translate(-357.496 -20.629)" fill="#fff"/>
    <path id="Path_7774" data-name="Path 7774" d="M646.585,55.585V42.351a9.359,9.359,0,0,1,1.172-4.8,8.028,8.028,0,0,1,3.219-3.112,10.674,10.674,0,0,1,9.41,0,8,8,0,0,1,3.219,3.112,9.358,9.358,0,0,1,1.192,4.8V55.585h-4.491V49.675h-9.252v5.909Zm4.471-9.848h9.252V42.049a5.215,5.215,0,0,0-.56-2.408,4.372,4.372,0,0,0-1.59-1.733,5.055,5.055,0,0,0-4.924,0,4.28,4.28,0,0,0-1.59,1.733,5.167,5.167,0,0,0-.564,2.408Z" transform="translate(-389.627 -20.093)" fill="#fff"/>
  </g>
</svg>
