<svg xmlns="http://www.w3.org/2000/svg" width="449.545" height="78.417" viewBox="0 0 449.545 78.417">
  <g id="Layer_1" data-name="Layer 1" transform="translate(0 0.007)">
    <path id="Path_7765" data-name="Path 7765" d="M173.281,70.274a10.479,10.479,0,0,1-5.57-1.461,10.121,10.121,0,0,1-3.727-3.9,10.881,10.881,0,0,1-1.331-5.337V43.1a3.175,3.175,0,0,0-.461-1.688,3.616,3.616,0,0,0-1.221-1.227,3.246,3.246,0,0,0-1.688-.454,3.1,3.1,0,0,0-1.662.454,3.662,3.662,0,0,0-1.195,1.227,3.175,3.175,0,0,0-.461,1.688V69.657h-7.3V43.974a10.907,10.907,0,0,1,1.3-5.363,10.225,10.225,0,0,1,3.733-3.856,11.472,11.472,0,0,1,11.18,0,10.226,10.226,0,0,1,3.733,3.856,10.907,10.907,0,0,1,1.3,5.363v16.49a3.246,3.246,0,0,0,.461,1.688,3.564,3.564,0,0,0,1.234,1.227,3.084,3.084,0,0,0,1.656.454,3.246,3.246,0,0,0,1.688-.454,3.473,3.473,0,0,0,1.227-1.227,3.246,3.246,0,0,0,.461-1.688V33.91h7.3V59.6a10.952,10.952,0,0,1-1.3,5.317,10.167,10.167,0,0,1-3.727,3.9A10.608,10.608,0,0,1,173.281,70.274Z" transform="translate(-52.148 -11.683)" fill="#fff"/>
    <path id="Path_7766" data-name="Path 7766" d="M227.718,70.6a16.017,16.017,0,0,1-7.687-1.792,13.062,13.062,0,0,1-5.259-5.077,15.329,15.329,0,0,1-1.915-7.843V34.24h7.3V56.353a8.362,8.362,0,0,0,.922,3.9,7.2,7.2,0,0,0,2.6,2.831,8.083,8.083,0,0,0,8.044,0,7.278,7.278,0,0,0,2.6-2.831,8.284,8.284,0,0,0,.922-3.9V34.24h7.3V55.892a15.393,15.393,0,0,1-1.915,7.843,13.14,13.14,0,0,1-5.259,5.077A16.055,16.055,0,0,1,227.718,70.6Z" transform="translate(-74.662 -12.013)" fill="#fff"/>
    <path id="Path_7767" data-name="Path 7767" d="M268.385,70V63.57h15.322a3.9,3.9,0,0,0,2.039-.558,4.272,4.272,0,0,0,1.48-1.506,3.973,3.973,0,0,0,.565-2.071,4.032,4.032,0,0,0-.565-2.116,4.24,4.24,0,0,0-1.48-1.513,3.9,3.9,0,0,0-2.039-.558h-5.979a12.011,12.011,0,0,1-5.46-1.227,9.55,9.55,0,0,1-3.9-3.551,10.271,10.271,0,0,1-1.454-5.59,10.914,10.914,0,0,1,1.35-5.583,9.914,9.914,0,0,1,3.727-3.707,10.427,10.427,0,0,1,5.194-1.3h15.556v6.434H277.935a3.532,3.532,0,0,0-1.876.519,3.8,3.8,0,0,0-1.357,1.4,4.162,4.162,0,0,0,0,3.9,3.733,3.733,0,0,0,3.246,1.889h6.174a12.335,12.335,0,0,1,5.772,1.3,9.271,9.271,0,0,1,3.8,3.571,10.388,10.388,0,0,1,1.357,5.363,12.673,12.673,0,0,1-1.4,6.181,9.739,9.739,0,0,1-3.785,3.9,10.537,10.537,0,0,1-5.233,1.3Z" transform="translate(-93.624 -12.03)" fill="#fff"/>
    <path id="Path_7768" data-name="Path 7768" d="M334.093,70.3a19.646,19.646,0,0,1-7.739-1.461,17.412,17.412,0,0,1-5.9-4.006,17.92,17.92,0,0,1-3.779-5.927,20.067,20.067,0,0,1,0-14.374,17.976,17.976,0,0,1,3.779-5.9,17.088,17.088,0,0,1,5.9-3.986,21.678,21.678,0,0,1,15.478,0,17.153,17.153,0,0,1,5.9,3.986,17.979,17.979,0,0,1,3.753,5.9,20.068,20.068,0,0,1,0,14.374,17.919,17.919,0,0,1-3.779,5.927,17.477,17.477,0,0,1-5.9,4.006A19.671,19.671,0,0,1,334.093,70.3Zm0-6.492a11.42,11.42,0,0,0,4.545-.889,10.777,10.777,0,0,0,3.649-2.571,11.686,11.686,0,0,0,2.4-3.856,14.075,14.075,0,0,0,0-9.6,11.335,11.335,0,0,0-2.4-3.83,10.914,10.914,0,0,0-3.649-2.532,12.056,12.056,0,0,0-9.089,0,10.94,10.94,0,0,0-3.655,2.532,11.322,11.322,0,0,0-2.4,3.83,14.075,14.075,0,0,0,0,9.6,11.685,11.685,0,0,0,2.4,3.856,10.8,10.8,0,0,0,3.655,2.6A11.42,11.42,0,0,0,334.093,63.805Z" transform="translate(-110.615 -11.655)" fill="#fff"/>
    <path id="Path_7769" data-name="Path 7769" d="M395.418,70.6a16.036,16.036,0,0,1-7.687-1.792,13.14,13.14,0,0,1-5.259-5.077,15.328,15.328,0,0,1-1.915-7.843V34.24h7.3V56.353a8.356,8.356,0,0,0,.915,3.9,7.264,7.264,0,0,0,2.636,2.831,7.486,7.486,0,0,0,10.647-2.831,8.355,8.355,0,0,0,.915-3.9V34.24h7.3V55.892a15.328,15.328,0,0,1-1.915,7.843,13.14,13.14,0,0,1-5.259,5.077,16.036,16.036,0,0,1-7.687,1.792Z" transform="translate(-133.485 -12.013)" fill="#fff"/>
    <path id="Path_7770" data-name="Path 7770" d="M436.567,69.674V48.055a15.291,15.291,0,0,1,1.915-7.836,13.037,13.037,0,0,1,5.259-5.084,17.438,17.438,0,0,1,15.374,0,13.115,13.115,0,0,1,5.259,5.083,15.355,15.355,0,0,1,1.948,7.836V69.674h-7.336V47.562a8.439,8.439,0,0,0-.922-3.934,7.063,7.063,0,0,0-2.6-2.831,8.258,8.258,0,0,0-8.044,0,6.991,6.991,0,0,0-2.6,2.831,8.524,8.524,0,0,0-.922,3.934V69.674Z" transform="translate(-153.132 -11.701)" fill="#fff"/>
    <path id="Path_7771" data-name="Path 7771" d="M498.612,69.987V40.674H488.64V34.24h27.222v6.434H505.9V69.987Z" transform="translate(-171.399 -12.013)" fill="#fff"/>
    <path id="Path_7772" data-name="Path 7772" d="M536.857,69.674V48.055a15.291,15.291,0,0,1,1.915-7.836,13.038,13.038,0,0,1,5.259-5.084,17.438,17.438,0,0,1,15.374,0,13.114,13.114,0,0,1,5.259,5.083,15.289,15.289,0,0,1,1.915,7.836V69.674h-7.3V60.02H544.161v9.654Zm7.3-16.088h15.114V47.562a8.439,8.439,0,0,0-.9-3.934,7.063,7.063,0,0,0-2.6-2.831,8.258,8.258,0,0,0-8.044,0,7.076,7.076,0,0,0-2.629,2.831,8.519,8.519,0,0,0-.915,3.934Z" transform="translate(-188.31 -11.701)" fill="#fff"/>
    <path id="Path_7773" data-name="Path 7773" d="M593.26,69.986V34.239h15.984a12.868,12.868,0,0,1,6.408,1.61,12.186,12.186,0,0,1,4.6,4.467,12.68,12.68,0,0,1,1.714,6.642,12.739,12.739,0,0,1-1.532,6.278,12.167,12.167,0,0,1-4.09,4.4l7.46,12.335h-8.836l-5.642-10.3h-8.758V69.986Zm7.3-16.75h7.791a6.8,6.8,0,0,0,3.168-.74,5.635,5.635,0,0,0,2.272-2.142,6.491,6.491,0,0,0,.844-3.4,6.33,6.33,0,0,0-.87-3.4,5.843,5.843,0,0,0-2.272-2.149,6.642,6.642,0,0,0-3.142-.74h-7.791Z" transform="translate(-208.097 -12.012)" fill="#fff"/>
    <path id="Path_7774" data-name="Path 7774" d="M646.587,69.674V48.055a15.29,15.29,0,0,1,1.915-7.836,13.113,13.113,0,0,1,5.259-5.083,17.438,17.438,0,0,1,15.374,0,13.076,13.076,0,0,1,5.259,5.083,15.289,15.289,0,0,1,1.948,7.836V69.674H669V60.02H653.891v9.654Zm7.3-16.088h15.114V47.562a8.52,8.52,0,0,0-.915-3.934,7.143,7.143,0,0,0-2.6-2.831,8.258,8.258,0,0,0-8.044,0,6.993,6.993,0,0,0-2.6,2.831,8.441,8.441,0,0,0-.922,3.934Z" transform="translate(-226.8 -11.701)" fill="#fff"/>
    <path id="Path_7775" data-name="Path 7775" d="M0,48.988V28.564C0,12.852,12.842-.295,28.566,0A28,28,0,0,1,55.99,27.992v21a6.992,6.992,0,0,1-7,7h0a7,7,0,0,1-7-7V28.33A14.249,14.249,0,0,0,28.508,14,14,14,0,0,0,14,27.992v21a7,7,0,0,1-7,7H7A7,7,0,0,1,0,48.988Z" transform="translate(0 0)" fill="#fff"/>
    <path id="Path_7776" data-name="Path 7776" d="M88.57,41.5V61.943c0,15.692-12.842,28.839-28.534,28.566A28,28,0,0,1,32.58,62.495v-21a7,7,0,0,1,7-7h0a7,7,0,0,1,7,7V62.157A14.213,14.213,0,0,0,60.062,76.479a13.991,13.991,0,0,0,14.51-13.984v-21a7,7,0,0,1,6.973-7h0a6.992,6.992,0,0,1,7.025,7Z" transform="translate(-11.428 -12.104)" fill="#fff"/>
  </g>
</svg>
