<svg id="Layer_x0020_1" xmlns="http://www.w3.org/2000/svg" width="78.008" height="17.02" viewBox="0 0 78.008 17.02">
  <path id="Path_7911" data-name="Path 7911" d="M5.1,45.416a.93.93,0,0,0-.632-.248H4.142a.7.7,0,0,1-.575-.573v-4h.761a.933.933,0,0,0,.93-.93h0a.933.933,0,0,0-.93-.93H3.567V37.464a1.052,1.052,0,0,0-2.1,0V38.73H.93a.933.933,0,0,0-.93.93H0a.933.933,0,0,0,.93.93h.533v4.553a1.716,1.716,0,0,0,.133.663,1.92,1.92,0,0,0,1.792,1.227H4.464A.936.936,0,0,0,5.4,46.1a.927.927,0,0,0-.149-.5.946.946,0,0,0-.152-.18Zm18.153-2.142H19.2c.847,2.85,3.249,1.872,4.2,1.448a.852.852,0,0,1,1.035.884c-.094.649-.932.932-.932.932a6.244,6.244,0,0,1-2.359.388,4.312,4.312,0,0,1,0-8.616c3.467,0,5.423,4.964,3.074,4.964h-.977Zm0-1.448a2.167,2.167,0,0,0-2.025-1.868A2.135,2.135,0,0,0,19.2,41.826h4.049Zm6.711,3.59a.93.93,0,0,0-.632-.248h-.323a.7.7,0,0,1-.575-.573v-4h.762a.933.933,0,0,0,.93-.93h0a.933.933,0,0,0-.93-.93H28.43V37.464a1.052,1.052,0,0,0-2.1,0V38.73h-.533a.933.933,0,0,0-.93.93h0a.933.933,0,0,0,.93.93h.533v4.553a1.716,1.716,0,0,0,.133.663,1.92,1.92,0,0,0,1.792,1.227h1.077a.936.936,0,0,0,.933-.933.927.927,0,0,0-.149-.5.946.946,0,0,0-.152-.18ZM9.894,39.509v6.329a1.052,1.052,0,1,0,2.1,0V44.78l.94-1.079.142.2,1.855,2.555a1.019,1.019,0,0,0,1.648-1.2l-2.13-2.934,1.906-2.186A.942.942,0,1,0,14.937,38.9l-1.621,1.86L12,42.27V36.512a1.052,1.052,0,0,0-2.1,0v3ZM7.326,38.371h0a1.055,1.055,0,0,1,1.052,1.052v6.245A1.055,1.055,0,0,1,7.326,46.72h0a1.055,1.055,0,0,1-1.052-1.052V39.423A1.055,1.055,0,0,1,7.326,38.371Z" transform="translate(0 -34.203)" fill="#0064d3" fill-rule="evenodd"/>
  <path id="Path_7912" data-name="Path 7912" d="M1422.6,119.5a2.864,2.864,0,0,1,2.737-2.976,2.548,2.548,0,0,1,1.225.314,2.747,2.747,0,0,1,.613.457l.017.006a.672.672,0,0,0,.807-.969.174.174,0,0,1-.01-.021,4.14,4.14,0,0,0-.551-.439,3.994,3.994,0,0,0-2.223-.675,4.306,4.306,0,0,0,0,8.6,3.99,3.99,0,0,0,2.053-.568,4.165,4.165,0,0,0,.743-.567l.005-.01a.672.672,0,0,0-.881-.915,2.844,2.844,0,0,1-.268.224h0a.061.061,0,0,1-.03.022,2.678,2.678,0,0,1-.485.275,2.539,2.539,0,0,1-1.015.211A2.863,2.863,0,0,1,1422.6,119.5Zm16.422-2.914v-.518a.722.722,0,0,0-1.443,0v6.863a.722.722,0,0,0,1.443,0v-5.3c.962-1.084,2.7-1.906,3.322,0v5.3a.722.722,0,1,0,1.443,0v-5.3c1.409-1.414,2.708-1.572,3.472,0v5.3a.722.722,0,0,0,1.443,0V117.15a2.42,2.42,0,0,0-1.158-1.654,3.075,3.075,0,0,0-3.758,1.273,2.425,2.425,0,0,0-.254-.549C1442.631,114.8,1440.467,115,1439.018,116.588Zm-6.288-1.388a4.306,4.306,0,1,1-4.132,4.3A4.219,4.219,0,0,1,1432.73,115.2Zm-.019,1.326a3.006,3.006,0,1,1-2.579,2.976A2.8,2.8,0,0,1,1432.71,116.526Z" transform="translate(-1370.691 -111.115)" fill="#0064d3" fill-rule="evenodd"/>
  <path id="Path_7913" data-name="Path 7913" d="M905.83,0a8.51,8.51,0,1,1-8.51,8.51A8.51,8.51,0,0,1,905.83,0Z" transform="translate(-865.503 0)" fill="#fedd00" fill-rule="evenodd"/>
</svg>
