<svg xmlns="http://www.w3.org/2000/svg" width="1920" height="615.82" viewBox="0 0 1920 615.82">
  <path id="Wave_Pattern" data-name="Wave Pattern" d="M289.787,0A74.487,74.487,0,0,0,215.96,65.324a10.537,10.537,0,0,0-.545,3.357v5.072c0,.207,0,.417,0,.625V349.933a53.281,53.281,0,0,1-106.56-.537,82.382,82.382,0,0,0-82.29-82.289H10.548a10.548,10.548,0,1,0,0,21.1H26.563A61.263,61.263,0,0,1,87.757,349.4a74.383,74.383,0,0,0,148.215,9.029,10.54,10.54,0,0,0,.536-3.33v-5.07c0-.21,0-.42,0-.63V73.842A53.345,53.345,0,0,1,289.79,21.1h0a53.282,53.282,0,0,1,53.28,53.282v222.2a74.377,74.377,0,0,0,74.376,74.378h0a74.485,74.485,0,0,0,73.827-65.316,10.534,10.534,0,0,0,.548-3.365v-5.351c0-.115,0-.231,0-.346V219.217a53.281,53.281,0,0,1,106.561.307v198.26c0,.051,0,.1,0,.153a74.376,74.376,0,0,0,74.376,74.224h0a74.489,74.489,0,0,0,73.823-65.281,10.537,10.537,0,0,0,.56-3.4V283.352a53.278,53.278,0,1,1,106.556,0V349.4a74.378,74.378,0,1,0,148.755,0V277.655a10.548,10.548,0,0,0-21.1,0V349.4a53.282,53.282,0,0,1-106.564,0V277.655a10.538,10.538,0,0,0-.549-3.369,74.379,74.379,0,0,0-147.645-.029,10.532,10.532,0,0,0-.559,3.4V417.784a53.282,53.282,0,1,1-106.563,0V213.827a10.536,10.536,0,0,0-.541-3.345,74.4,74.4,0,0,0-73.835-65.336h0a74.4,74.4,0,0,0-73.835,65.344,10.536,10.536,0,0,0-.539,3.337v5.345c0,.118,0,.234,0,.351v77.357a53.282,53.282,0,0,1-106.563-.3V68.681a10.537,10.537,0,0,0-.54-3.34A74.4,74.4,0,0,0,289.795,0Zm957.446,58.133a74.461,74.461,0,0,0-74.376,74.378V541.442a53.281,53.281,0,1,1-106.562,0V277.655a10.536,10.536,0,0,0-.549-3.368,74.38,74.38,0,0,0-148.206,9.063v71.744a10.548,10.548,0,1,0,21.1,0V283.35a53.282,53.282,0,0,1,106.564,0V547.136a10.538,10.538,0,0,0,.539,3.339,74.4,74.4,0,0,0,73.836,65.344h0a74.461,74.461,0,0,0,74.376-74.378V132.511a53.282,53.282,0,1,1,106.564,0V315.5a74.377,74.377,0,1,0,148.754,0v-3.723q0-.118,0-.237V273.7a53.282,53.282,0,1,1,106.564,0V473.654a74.378,74.378,0,0,0,148.755,0v-196q0-.2-.007-.39V273.7a53.281,53.281,0,1,1,106.561,0,82.383,82.383,0,0,0,82.29,82.291h16.015a10.548,10.548,0,1,0,0-21.1h-16.015a61.263,61.263,0,0,1-61.194-61.194,74.376,74.376,0,0,0-74.376-74.378h0a74.374,74.374,0,0,0-74.376,74.378v196q0,.17.005.339v3.618a53.282,53.282,0,1,1-106.563,0V273.7a74.378,74.378,0,0,0-148.756,0v3.721c0,.079,0,.158,0,.238v37.848a53.281,53.281,0,1,1-106.562,0V132.511a74.376,74.376,0,0,0-74.376-74.378Zm510.634,141.189Zm-127.652,348.71h0Zm0,0Z" transform="translate(1920 615.82) rotate(180)" fill="#7a43ff"/>
</svg>
